<svg width="16" height="16" viewBox="0 0 16 16" fill="none" xmlns="http://www.w3.org/2000/svg">
<path d="M12.8787 8.99992H10.2954C9.95304 8.99992 9.62465 9.13549 9.38202 9.37699C9.1394 9.61849 9.00229 9.94626 9.00071 10.2886V12.8719C9.00071 13.2153 9.13711 13.5446 9.37991 13.7874C9.6227 14.0302 9.95201 14.1666 10.2954 14.1666H12.8787C13.2209 14.1648 13.5485 14.0276 13.7899 13.785C14.0312 13.5424 14.1667 13.2141 14.1667 12.8719V10.2886C14.1667 9.94699 14.031 9.61938 13.7895 9.37783C13.5479 9.13629 13.2203 9.00059 12.8787 9.00059M5.70471 8.99992H3.12137C2.7791 9.00186 2.45151 9.13918 2.21017 9.3819C1.96883 9.62461 1.83337 9.95298 1.83337 10.2953V12.8786C1.83337 13.2202 1.96907 13.5478 2.21062 13.7893C2.45217 14.0309 2.77978 14.1666 3.12137 14.1666H5.70471C6.04692 14.1666 6.37522 14.0311 6.61783 13.7897C6.86043 13.5484 6.99761 13.2208 6.99937 12.8786V10.2953C6.99937 9.95189 6.86297 9.62258 6.62018 9.37978C6.37738 9.13699 6.04807 9.00059 5.70471 9.00059M5.70471 1.83325H3.12137C2.95223 1.83325 2.78475 1.86657 2.62848 1.9313C2.47221 1.99602 2.33022 2.0909 2.21062 2.2105C2.09102 2.3301 1.99615 2.47209 1.93142 2.62836C1.86669 2.78462 1.83337 2.95211 1.83337 3.12125V5.70459C1.83337 6.0468 1.96886 6.3751 2.21021 6.6177C2.45157 6.86031 2.77916 6.99749 3.12137 6.99925H5.70471C6.04807 6.99925 6.37738 6.86285 6.62018 6.62005C6.86297 6.37726 6.99937 6.04795 6.99937 5.70459V3.12125C6.99761 2.77904 6.86043 2.45145 6.61783 2.21009C6.37522 1.96873 6.04692 1.83325 5.70471 1.83325ZM12.8787 1.83325H10.2954C9.95316 1.83325 9.62486 1.96873 9.38226 2.21009C9.13965 2.45145 9.00247 2.77904 9.00071 3.12125V5.70459C9.00088 6.0479 9.13734 6.3771 9.3801 6.61986C9.62286 6.86262 9.95206 6.99908 10.2954 6.99925H12.8787C13.2209 6.99749 13.5485 6.86031 13.7899 6.6177C14.0312 6.3751 14.1667 6.0468 14.1667 5.70459V3.12125C14.1667 2.77965 14.031 2.45205 13.7895 2.2105C13.5479 1.96895 13.2203 1.83325 12.8787 1.83325Z" stroke="#1F1F1F" stroke-linecap="round" stroke-linejoin="round"/>
</svg>
