<svg width="200" height="200" viewBox="0 0 200 200" fill="none" xmlns="http://www.w3.org/2000/svg">
<path d="M187.532 50.0004L187.5 162.5C187.496 175 174.968 187.5 162.5 187.5H37.5C24.9673 187.5 12.497 175 12.5 162.5L12.5328 25.0005" stroke="#5C5C5C" stroke-width="12.5" stroke-linecap="round" stroke-linejoin="round"/>
<path d="M175 37.5C181.904 37.5 187.5 43.0965 187.5 50" stroke="#5C5C5C" stroke-width="12.5" stroke-linecap="round" stroke-linejoin="round"/>
<path d="M112.532 37.5005H175.032" stroke="#5C5C5C" stroke-width="12.5"/>
<path d="M83.1132 12.5005C85.3074 12.5005 87.4629 13.0781 89.3631 14.1752C91.2634 15.2723 92.8413 16.8502 93.9384 18.7505" stroke="#5C5C5C" stroke-width="12.5" stroke-linecap="round" stroke-linejoin="round"/>
<path d="M112.532 37.5005C110.338 37.5005 108.183 36.9229 106.282 35.8258C104.382 34.7287 102.804 33.1507 101.707 31.2505" stroke="#5C5C5C" stroke-width="12.5" stroke-linecap="round" stroke-linejoin="round"/>
<path d="M112.532 37.5005C110.338 37.5005 108.183 38.0781 106.282 39.1752C104.382 40.2723 102.804 41.8502 101.707 43.7505" stroke="#5C5C5C" stroke-width="12.5" stroke-linecap="round" stroke-linejoin="round"/>
<path d="M93.9385 18.7505L101.707 31.2504" stroke="#5C5C5C" stroke-width="12.5"/>
<path d="M83.1132 62.5002C85.3074 62.5002 87.4629 61.9227 89.3631 60.8256C91.2634 59.7285 92.8414 58.1505 93.9385 56.2502" stroke="#5C5C5C" stroke-width="12.5" stroke-linecap="round" stroke-linejoin="round"/>
<path d="M93.9385 56.2504L101.707 43.7505" stroke="#5C5C5C" stroke-width="12.5"/>
<path d="M12.5 62.5L83.1131 62.5005" stroke="#5C5C5C" stroke-width="12.5" stroke-linecap="round" stroke-linejoin="round"/>
<path d="M25.0328 12.5005C18.1293 12.5005 12.5328 18.1002 12.5328 25.0037" stroke="#5C5C5C" stroke-width="12.5" stroke-linecap="round" stroke-linejoin="round"/>
<path d="M25.0328 12.5005H83.1133" stroke="#5C5C5C" stroke-width="12.5" stroke-linecap="round" stroke-linejoin="round"/>
</svg>
