<svg width="36" height="36" viewBox="0 0 36 36" fill="none" xmlns="http://www.w3.org/2000/svg">
<path d="M4.32088 8.68098L15.3209 1.70021C16.9562 0.662408 19.0438 0.662409 20.6791 1.70021L31.6791 8.68098C33.1244 9.59816 34 11.1909 34 12.9026V23.0974C34 24.8091 33.1244 26.4018 31.6791 27.319L20.6791 34.2998C19.0438 35.3376 16.9562 35.3376 15.3209 34.2998L4.32088 27.319C2.87563 26.4018 2 24.8091 2 23.0974V12.9026C2 11.1909 2.87563 9.59816 4.32088 8.68098Z" fill="#602093"/>
<rect x="10.8889" y="14.4001" width="3.55556" height="7.2" rx="1.77778" fill="white"/>
<rect x="21.5555" y="14.4001" width="3.55556" height="7.2" rx="1.77778" fill="white"/>
<rect x="16.2223" y="12.6001" width="3.55556" height="10.8" rx="1.77778" fill="white"/>
</svg>
