<svg width="200" height="200" viewBox="0 0 200 200" fill="none" xmlns="http://www.w3.org/2000/svg">
<path d="M160.983 112.5H128.692C124.412 112.5 120.308 114.195 117.275 117.214C114.242 120.232 112.528 124.329 112.508 128.608V160.9C112.508 165.192 114.213 169.308 117.248 172.343C120.283 175.378 124.4 177.083 128.692 177.083H160.983C165.261 177.061 169.356 175.347 172.373 172.314C175.39 169.281 177.083 165.178 177.083 160.9V128.608C177.083 124.338 175.387 120.243 172.368 117.224C169.348 114.205 165.253 112.508 160.983 112.508M71.3083 112.5H39.0166C34.7382 112.524 30.6433 114.241 27.6266 117.275C24.6099 120.309 22.9166 124.413 22.9166 128.692V160.983C22.9166 165.253 24.6129 169.348 27.6322 172.368C30.6515 175.387 34.7466 177.083 39.0166 177.083H71.3083C75.586 177.083 79.6897 175.39 82.7223 172.373C85.7549 169.356 87.4696 165.261 87.4916 160.983V128.692C87.4916 124.4 85.7866 120.283 82.7516 117.248C79.7167 114.213 75.6004 112.508 71.3083 112.508M71.3083 22.9167H39.0166C36.9023 22.9167 34.8088 23.3332 32.8554 24.1423C30.9021 24.9514 29.1272 26.1373 27.6322 27.6323C26.1372 29.1274 24.9513 30.9022 24.1422 32.8555C23.3331 34.8089 22.9166 36.9025 22.9166 39.0167V71.3084C22.9166 75.5861 24.6101 79.6898 27.6271 82.7224C30.6441 85.755 34.739 87.4697 39.0166 87.4917H71.3083C75.6004 87.4917 79.7167 85.7867 82.7516 82.7518C85.7866 79.7168 87.4916 75.6005 87.4916 71.3084V39.0167C87.4696 34.7391 85.7549 30.6442 82.7223 27.6272C79.6897 24.6103 75.586 22.9167 71.3083 22.9167ZM160.983 22.9167H128.692C124.414 22.9167 120.31 24.6103 117.278 27.6272C114.245 30.6442 112.53 34.7391 112.508 39.0167V71.3084C112.511 75.5998 114.216 79.7148 117.251 82.7493C120.285 85.7838 124.4 87.4895 128.692 87.4917H160.983C165.261 87.4697 169.356 85.755 172.373 82.7224C175.39 79.6898 177.083 75.5861 177.083 71.3084V39.0167C177.083 34.7468 175.387 30.6517 172.368 27.6323C169.348 24.613 165.253 22.9167 160.983 22.9167Z" stroke="#5C5C5C" stroke-width="12.5" stroke-linecap="round" stroke-linejoin="round"/>
</svg>
