<svg width="256" height="256" viewBox="0 0 256 256" fill="none" xmlns="http://www.w3.org/2000/svg">
    <path d="M240.041 64.0006L240 208C239.995 224 223.959 240 208 240H48C31.9581 240 15.9962 224 16 208L16.042 32.0007"
          stroke="#5C5C5C" stroke-width="16" stroke-linecap="round" stroke-linejoin="round"/>
    <path d="M224 48C232.837 48 240 55.1635 240 64" stroke="#5C5C5C" stroke-width="16" stroke-linecap="round"
          stroke-linejoin="round"/>
    <path d="M144.042 48.0007H224.041" stroke="#5C5C5C" stroke-width="16"/>
    <path d="M106.385 16.0007C109.193 16.0007 111.952 16.74 114.385 18.1443C116.817 19.5486 118.837 21.5684 120.241 24.0007"
          stroke="#5C5C5C" stroke-width="16" stroke-linecap="round" stroke-linejoin="round"/>
    <path d="M144.042 48.0007C141.233 48.0007 138.474 47.2614 136.042 45.8571C133.609 44.4528 131.589 42.433 130.185 40.0007"
          stroke="#5C5C5C" stroke-width="16" stroke-linecap="round" stroke-linejoin="round"/>
    <path d="M144.042 48.0007C141.233 48.0007 138.474 48.74 136.042 50.1443C133.609 51.5486 131.589 53.5684 130.185 56.0007"
          stroke="#5C5C5C" stroke-width="16" stroke-linecap="round" stroke-linejoin="round"/>
    <path d="M120.241 24.0007L130.185 40.0007" stroke="#5C5C5C" stroke-width="16"/>
    <path d="M106.385 80.0005C109.193 80.0005 111.952 79.2612 114.385 77.8569C116.817 76.4526 118.837 74.4328 120.241 72.0005"
          stroke="#5C5C5C" stroke-width="16" stroke-linecap="round" stroke-linejoin="round"/>
    <path d="M120.241 72.0007L130.185 56.0007" stroke="#5C5C5C" stroke-width="16"/>
    <path d="M16 80L106.385 80.0006" stroke="#5C5C5C" stroke-width="16" stroke-linecap="round" stroke-linejoin="round"/>
    <path d="M32.042 16.0007C23.2054 16.0007 16.042 23.1684 16.042 32.0049" stroke="#5C5C5C" stroke-width="16"
          stroke-linecap="round" stroke-linejoin="round"/>
    <path d="M32.042 16.0007H106.385" stroke="#5C5C5C" stroke-width="16" stroke-linecap="round"
          stroke-linejoin="round"/>
</svg>
