<?xml version="1.0" encoding="UTF-8"?>
<svg version="1.1" xmlns="http://www.w3.org/2000/svg" width="200" height="200">
<path d="M0 0 C2.20908355 1.24810291 4.35290812 2.52795677 6.5 3.875 C7.26280273 4.34776367 8.02560547 4.82052734 8.81152344 5.30761719 C14.43013635 8.8050266 19.99719509 12.37910893 25.55371094 15.97412109 C29.41821047 18.46740858 33.29937507 20.93395111 37.18212891 23.39868164 C39.94627104 25.15339221 42.70783794 26.91208757 45.46875 28.671875 C48.56872637 30.64735013 51.67239548 32.61665607 54.78125 34.578125 C56.02088991 35.36449415 57.26047782 36.15094528 58.5 36.9375 C59.53125 37.58847656 60.5625 38.23945312 61.625 38.91015625 C66.41290642 42.18232599 70.60182615 45.22370507 73.3125 50.5 C73.71082031 51.25539062 74.10914063 52.01078125 74.51953125 52.7890625 C76.42728272 56.84778475 76.64079682 60.04936009 76.67700195 64.49853516 C76.68357315 65.16726654 76.69014435 65.83599792 76.69691467 66.5249939 C76.7166212 68.73801799 76.72830729 70.95097414 76.73828125 73.1640625 C76.74235678 73.92235729 76.7464323 74.68065208 76.75063133 75.46192551 C76.77148564 79.47933427 76.78578737 83.49670899 76.79516602 87.51416016 C76.80620008 91.64656952 76.84056639 95.7784359 76.88033772 99.91065407 C76.90659917 103.10217223 76.91486647 106.29356321 76.91844749 109.4851799 C76.92329271 111.00729392 76.9348473 112.52940306 76.95348549 114.05141068 C77.07096858 124.2852479 76.1739621 131.64980945 70.21484375 140.125 C67.07480667 143.30569943 63.85303358 145.54576399 60.0625 147.875 C59.32950684 148.33720947 58.59651367 148.79941895 57.84130859 149.27563477 C56.24544824 150.28156173 54.64703466 151.28344699 53.04638672 152.28173828 C49.48583162 154.5095602 45.94870645 156.77350308 42.40942383 159.03491211 C38.68822618 161.41054035 34.96039624 163.77565039 31.23242188 166.140625 C28.58574279 167.8205757 25.94119327 169.50383658 23.296875 171.1875 C-5.23987906 189.32644987 -5.23987906 189.32644987 -19.5 187.875 C-23.899008 186.55102672 -27.6323791 184.30146931 -31.5 181.875 C-32.26280273 181.40223633 -33.02560547 180.92947266 -33.81152344 180.44238281 C-39.43013635 176.9449734 -44.99719509 173.37089107 -50.55371094 169.77587891 C-54.41821047 167.28259142 -58.29937507 164.81604889 -62.18212891 162.35131836 C-64.94627104 160.59660779 -67.70783794 158.83791243 -70.46875 157.078125 C-73.56872637 155.10264987 -76.67239548 153.13334393 -79.78125 151.171875 C-81.02088991 150.38550585 -82.26047782 149.59905472 -83.5 148.8125 C-85.046875 147.83603516 -85.046875 147.83603516 -86.625 146.83984375 C-91.41290642 143.56767401 -95.60182615 140.52629493 -98.3125 135.25 C-98.71082031 134.49460938 -99.10914062 133.73921875 -99.51953125 132.9609375 C-101.42728272 128.90221525 -101.64079682 125.70063991 -101.67700195 121.25146484 C-101.68357315 120.58273346 -101.69014435 119.91400208 -101.69691467 119.2250061 C-101.7166212 117.01198201 -101.72830729 114.79902586 -101.73828125 112.5859375 C-101.74235678 111.82764271 -101.7464323 111.06934792 -101.75063133 110.28807449 C-101.77148564 106.27066573 -101.78578737 102.25329101 -101.79516602 98.23583984 C-101.80620008 94.10343048 -101.84056639 89.9715641 -101.88033772 85.83934593 C-101.90659917 82.64782777 -101.91486647 79.45643679 -101.91844749 76.2648201 C-101.92329271 74.74270608 -101.9348473 73.22059694 -101.95348549 71.69858932 C-102.07096858 61.4647521 -101.1739621 54.10019055 -95.21484375 45.625 C-92.07480667 42.44430057 -88.85303358 40.20423601 -85.0625 37.875 C-84.32950684 37.41279053 -83.59651367 36.95058105 -82.84130859 36.47436523 C-81.24544824 35.46843827 -79.64703466 34.46655301 -78.04638672 33.46826172 C-74.48583162 31.2404398 -70.94870645 28.97649692 -67.40942383 26.71508789 C-63.68822618 24.33945965 -59.96039624 21.97434961 -56.23242188 19.609375 C-53.58574279 17.9294243 -50.94119327 16.24616342 -48.296875 14.5625 C-14.51638902 -6.90954761 -14.51638902 -6.90954761 0 0 Z " fill="#602093" transform="translate(112.5,7.125)"/>
<path d="M0 0 C0.78826172 0.00491455 1.57652344 0.0098291 2.38867188 0.01489258 C12.81942422 0.22346484 21.09442762 3.32215876 30.1875 8.3125 C29.64855575 12.91058129 28.42178472 16.18034369 26.125 20.1875 C25.57714844 21.15429688 25.02929688 22.12109375 24.46484375 23.1171875 C24.04332031 23.84164062 23.62179688 24.56609375 23.1875 25.3125 C22.45144531 25.01601562 21.71539062 24.71953125 20.95703125 24.4140625 C20.04308594 24.05054687 19.12914063 23.68703125 18.1875 23.3125 C17.14142578 22.89097656 17.14142578 22.89097656 16.07421875 22.4609375 C6.15813378 18.97357547 -4.80960825 18.39635384 -14.4375 22.875 C-23.36440246 28.05211958 -27.63574916 35.05666386 -30.5625 44.8125 C-31.6346627 55.53412699 -29.87054061 65.2402148 -23.8125 74.3125 C-16.74534006 81.77072808 -8.55700162 84.34051075 1.5 84.8125 C7.77705733 84.69336249 12.80017269 82.91816972 18.5078125 80.40625 C21.1875 79.3125 21.1875 79.3125 24.1875 79.3125 C25.22263247 81.3887657 26.24016211 83.47381479 27.25 85.5625 C27.81847656 86.72265625 28.38695312 87.8828125 28.97265625 89.078125 C30.1875 92.3125 30.1875 92.3125 30.0859375 94.60546875 C27.76087805 99.0230817 21.08617609 100.44631038 16.609375 101.90234375 C11.00301578 103.54215863 5.69243641 103.8514778 -0.125 103.8125 C-1.1346582 103.80605469 -2.14431641 103.79960937 -3.18457031 103.79296875 C-17.17942635 103.4510822 -28.17882185 98.05220146 -38.0625 88.03125 C-49.41652125 74.78489187 -51.78284883 60.63036879 -51.03466797 43.79785156 C-49.8218515 30.23030035 -41.60128593 18.99187831 -31.55859375 10.35546875 C-22.02086123 3.2598299 -11.78215937 -0.08752896 0 0 Z " fill="#FCFBFD" transform="translate(104.8125,46.6875)"/>
</svg>
